<?xml version="1.0" encoding="UTF-8" standalone="no"?>
<!-- Created with Inkscape (http://www.inkscape.org/) -->

<svg
   version="1.1"
   id="svg2"
   width="500"
   height="500"
   viewBox="0 0 499.99999 500"
   sodipodi:docname="logo_sparrow.svg"
   inkscape:version="1.3.2 (091e20e, 2023-11-25, custom)"
   xmlns:inkscape="http://www.inkscape.org/namespaces/inkscape"
   xmlns:sodipodi="http://sodipodi.sourceforge.net/DTD/sodipodi-0.dtd"
   xmlns="http://www.w3.org/2000/svg"
   xmlns:svg="http://www.w3.org/2000/svg">
  <defs
     id="defs6">
    <clipPath
       clipPathUnits="userSpaceOnUse"
       id="clipPath62">
      <path
         d="M 3083.91,1985.52 H 2877.7 c 0,0 180.08,42.67 325.35,267.4 62.64,96.92 166.42,297.13 314.74,555.44 70.72,0 144.58,0 219.92,0 v 0 c 159.61,0 323.8,0 478.4,0 C 4076.4,2575.99 3929.5,2333.15 3929.5,2333.15 3725.43,1999.21 3475.26,1985.52 3083.91,1985.52"
         id="path60" />
    </clipPath>
    <linearGradient
       x1="0"
       y1="0"
       x2="1"
       y2="0"
       gradientUnits="userSpaceOnUse"
       gradientTransform="matrix(-4.71e-5,-1078.57,1078.57,-4.71e-5,3604.87,2966.01)"
       spreadMethod="pad"
       id="linearGradient68">
      <stop
         style="stop-opacity:1;stop-color:#ffce00"
         offset="0"
         id="stop64" />
      <stop
         style="stop-opacity:1;stop-color:#ff6900"
         offset="1"
         id="stop66" />
    </linearGradient>
    <clipPath
       clipPathUnits="userSpaceOnUse"
       id="clipPath78">
      <path
         d="m 4942.64,2808.36 c -103.28,0 -392.65,0 -726.53,0 -154.6,0 -318.79,0 -478.4,0 40.83,288.61 74.33,512.94 242.3,579.38 -120.64,0 -276.32,0 -443.26,0 l -353.11,-579.38 c -166.11,0 -293.44,0 -349.7,0 -552.65,0 -588.27,321.51 -748.54,683.56 120.16,-94.65 236.48,-104.18 329.8,-104.18 252.73,0 1452.38,0 1743.04,0 552.64,0 632.86,-320.89 784.4,-579.38 m -508.08,444.06 c -44.31,0 -80.22,-35.92 -80.22,-80.23 0,-44.3 35.91,-80.21 80.22,-80.21 44.31,0 80.23,35.91 80.23,80.21 0,44.31 -35.92,80.23 -80.23,80.23"
         id="path76" />
    </clipPath>
    <linearGradient
       x1="0"
       y1="0"
       x2="1"
       y2="0"
       gradientUnits="userSpaceOnUse"
       gradientTransform="matrix(2857.23,0,0,-2857.23,2085.41,3150.14)"
       spreadMethod="pad"
       id="linearGradient84">
      <stop
         style="stop-opacity:1;stop-color:#ffba00"
         offset="0"
         id="stop80" />
      <stop
         style="stop-opacity:1;stop-color:#ff4900"
         offset="1"
         id="stop82" />
    </linearGradient>
    <clipPath
       clipPathUnits="userSpaceOnUse"
       id="clipPath94">
      <path
         d="m 3737.71,2808.36 c -201.27,0 -395.36,0 -554.07,0 l 353.11,579.38 c 166.94,0 322.62,0 443.26,0 -167.97,-66.44 -201.47,-290.77 -242.3,-579.38"
         id="path92" />
    </clipPath>
    <linearGradient
       x1="0"
       y1="0"
       x2="1"
       y2="0"
       gradientUnits="userSpaceOnUse"
       gradientTransform="matrix(2857.23,0,0,-2857.23,2085.41,3150.14)"
       spreadMethod="pad"
       id="linearGradient100">
      <stop
         style="stop-opacity:1;stop-color:#eaab00"
         offset="0"
         id="stop96" />
      <stop
         style="stop-opacity:1;stop-color:#ea4300"
         offset="1"
         id="stop98" />
    </linearGradient>
    <clipPath
       clipPathUnits="userSpaceOnUse"
       id="clipPath110">
      <path
         d="m 2785.55,3055.14 c 202.78,334.37 463.45,329.8 854.51,329.8 h 295.34 c 0,0 -176.45,-18.88 -302.15,-232.28 -125.7,-213.39 -492.35,-819.51 -492.35,-819.51 -204.07,-333.94 -454.24,-347.63 -845.6,-347.63 h -295.34 c 0,0 180.08,42.67 325.35,267.4 81.42,125.98 232.32,426.41 460.24,802.22 z"
         id="path108" />
    </clipPath>
    <linearGradient
       x1="0"
       y1="0"
       x2="1"
       y2="0"
       gradientUnits="userSpaceOnUse"
       gradientTransform="matrix(6.39e-5,-1462.26,-1462.26,-6.39e-5,2967.69,3384.95)"
       spreadMethod="pad"
       id="linearGradient116">
      <stop
         style="stop-opacity:1;stop-color:#ffce00"
         offset="0"
         id="stop112" />
      <stop
         style="stop-opacity:1;stop-color:#ff6900"
         offset="1"
         id="stop114" />
    </linearGradient>
  </defs>
  <sodipodi:namedview
     id="namedview4"
     pagecolor="#ffffff"
     bordercolor="#000000"
     borderopacity="0.25"
     inkscape:showpageshadow="2"
     inkscape:pageopacity="0.0"
     inkscape:pagecheckerboard="0"
     inkscape:deskcolor="#d1d1d1"
     inkscape:zoom="2.5016316"
     inkscape:cx="393.34329"
     inkscape:cy="317.19299"
     inkscape:window-width="3840"
     inkscape:window-height="2126"
     inkscape:window-x="1909"
     inkscape:window-y="-11"
     inkscape:window-maximized="1"
     inkscape:current-layer="g8"
     showguides="true">
    <sodipodi:guide
       position="251.00052,608.54076"
       orientation="1,0"
       id="guide1"
       inkscape:locked="false" />
    <sodipodi:guide
       position="563.05521,250.13011"
       orientation="0,-1"
       id="guide2"
       inkscape:locked="false" />
  </sodipodi:namedview>
  <g
     id="g8"
     inkscape:groupmode="layer"
     inkscape:label="ink_ext_XXXXXX"
     transform="matrix(1.3333333,0,0,-1.3333333,0,755.90667)">
    <path
       d="m 823.48615,221.11435 c -3.008,-0.181 -6.265,-0.136 -9.773,0.137 -3.51,0.274 -5.262,2.505 -5.262,6.698 v 40.187 h 4.92 c 1.184,0 2.232,-0.457 3.145,-1.366 0.91,-0.912 1.367,-2.006 1.367,-3.281 v -6.151 h 5.603 v -1.914 c 0,-1.367 -0.457,-2.484 -1.367,-3.349 -0.912,-0.867 -2.006,-1.298 -3.279,-1.298 h -0.957 v -20.231 c 0,-1.551 0.91,-2.323 2.732,-2.323 h 2.871 v -7.109"
       style="fill:#6c6d6d;fill-opacity:1;fill-rule:nonzero;stroke:none;stroke-width:0.1"
       id="path14" />
    <path
       d="m 850.53315,247.22335 c -1.365,1.913 -3.234,2.87 -5.603,2.87 -2.553,0 -4.512,-0.912 -5.877,-2.733 -1.367,-1.825 -2.051,-4.33 -2.051,-7.519 v -18.727 h -9.295 v 47.022 h 4.646 c 1.276,0 2.37,-0.457 3.282,-1.366 0.91,-0.912 1.367,-2.006 1.367,-3.281 v -10.798 c 1.641,2.733 3.963,4.464 6.971,5.194 3.007,0.728 5.877,0.546 8.611,-0.547 2.551,-1.094 4.693,-2.826 6.426,-5.194 1.728,-2.371 2.595,-5.652 2.595,-9.842 v -21.188 h -9.158 v 18.864 c 0,1.367 -0.115,2.618 -0.342,3.759 -0.228,1.138 -0.752,2.3 -1.572,3.486"
       style="fill:#6c6d6d;fill-opacity:1;fill-rule:nonzero;stroke:none;stroke-width:0.1"
       id="path16" />
    <path
       d="m 874.53115,242.98635 h 13.942 c -0.184,2.46 -0.819,4.282 -1.912,5.466 -1.186,1.276 -2.872,1.914 -5.059,1.914 -2.006,0 -3.647,-0.638 -4.92,-1.914 -1.277,-1.276 -1.961,-3.098 -2.051,-5.466 z m 16.403,-10.663 h 6.834 c -1.002,-3.828 -2.916,-6.745 -5.741,-8.749 -2.826,-2.096 -6.379,-3.143 -10.662,-3.143 -5.193,0 -9.25,1.685 -12.166,5.058 -2.916,3.28 -4.373,7.972 -4.373,14.079 0,5.831 1.412,10.388 4.236,13.669 2.916,3.371 6.973,5.057 12.166,5.057 5.469,0 9.706,-1.639 12.713,-4.921 2.916,-3.372 4.373,-8.064 4.373,-14.079 0,-0.365 0,-0.683 0,-0.957 0,-0.272 0,-0.457 0,-0.546 0,-0.457 -0.046,-0.775 -0.136,-0.957 h -23.647 c 0.09,-2.826 0.774,-4.921 2.051,-6.288 1.182,-1.459 2.959,-2.186 5.33,-2.186 1.549,0 2.871,0.317 3.965,0.956 0.273,0.089 0.523,0.25 0.752,0.478 0.226,0.227 0.478,0.479 0.752,0.752 0.088,0.274 0.43,0.637 1.023,1.094 0.592,0.455 1.436,0.683 2.53,0.683"
       style="fill:#6c6d6d;fill-opacity:1;fill-rule:nonzero;stroke:none;stroke-width:0.1"
       id="path18" />
    <path
       d="m 936.21515,239.56835 c 0,3.281 -0.684,5.831 -2.051,7.655 -1.365,1.913 -3.234,2.87 -5.603,2.87 -2.553,0 -4.512,-0.912 -5.877,-2.733 -1.368,-1.914 -2.051,-4.511 -2.051,-7.792 0,-3.828 0.637,-6.609 1.914,-8.338 1.365,-1.914 3.279,-2.87 5.74,-2.87 2.551,0 4.512,0.956 5.877,2.87 1.367,1.914 2.051,4.692 2.051,8.338 z m -15.582,24.057 v -10.934 c 1.002,1.729 2.461,3.143 4.373,4.237 1.64,0.909 3.644,1.366 6.015,1.366 4.282,0 7.791,-1.776 10.526,-5.33 2.732,-3.555 4.099,-8.157 4.099,-13.807 0,-5.651 -1.367,-10.252 -4.099,-13.805 -1.367,-1.733 -3.213,-2.986 -5.537,-3.759 -2.324,-0.773 -4.625,-1.162 -6.903,-1.162 -4.375,0 -8.429,1.139 -12.166,3.417 -3.738,2.277 -5.603,6.651 -5.603,13.123 v 31.302 h 4.646 c 1.276,0 2.369,-0.457 3.282,-1.367 0.91,-0.912 1.367,-2.005 1.367,-3.281"
       style="fill:#6c6d6d;fill-opacity:1;fill-rule:nonzero;stroke:none;stroke-width:0.1"
       id="path20" />
    <path
       d="m 949.50815,257.47535 h 4.92 c 1.275,0 2.369,-0.457 3.281,-1.367 0.91,-0.912 1.367,-2.006 1.367,-3.281 v -31.713 h -9.568 z m 0,10.661 h 4.92 c 1.275,0 2.369,-0.457 3.281,-1.366 0.91,-0.912 1.367,-2.006 1.367,-3.281 v -2.871 h -9.568 v 7.518"
       style="fill:#6c6d6d;fill-opacity:1;fill-rule:nonzero;stroke:none;stroke-width:0.1"
       id="path22" />
    <path
       d="m 962.88515,221.11435 v 17.633 c 0,3.555 0.523,6.538 1.572,8.954 1.047,2.413 2.482,4.351 4.307,5.809 1.728,1.367 3.757,2.369 6.082,3.008 2.324,0.637 4.716,0.957 7.175,0.957 0.182,0 0.411,0 0.684,0 0.273,0 0.5,0 0.684,0 v -9.705 h -3.145 c -2.642,0 -4.601,-0.639 -5.877,-1.914 -1.277,-1.278 -1.914,-3.281 -1.914,-6.015 v -18.727 h -9.568"
       style="fill:#6c6d6d;fill-opacity:1;fill-rule:nonzero;stroke:none;stroke-width:0.1"
       id="path24" />
    <path
       d="m 994.22115,239.56835 c 0,-3.646 0.683,-6.424 2.05,-8.338 1.368,-1.914 3.325,-2.87 5.87705,-2.87 2.461,0 4.375,0.956 5.741,2.87 1.275,1.914 1.914,4.692 1.914,8.338 0,3.281 -0.684,5.878 -2.049,7.792 -1.459,1.821 -3.418,2.733 -5.879,2.733 -2.37105,0 -4.23605,-0.957 -5.60405,-2.87 -1.367,-1.824 -2.05,-4.374 -2.05,-7.655 z m 15.58205,28.705 h 4.648 c 1.276,0 2.369,-0.479 3.279,-1.435 0.911,-0.957 1.368,-2.029 1.368,-3.213 v -26.654 c 0,-6.472 -1.868,-10.846 -5.604,-13.123 -3.738,-2.278 -7.791,-3.417 -12.166,-3.417 -2.37105,0 -4.69305,0.389 -6.97105,1.162 -2.279,0.773 -4.101,2.026 -5.468,3.759 -2.643,3.37 -3.963,7.972 -3.963,13.805 0,5.742 1.32,10.342 3.963,13.807 2.734,3.554 6.242,5.33 10.525,5.33 2.27705,0 4.28305,-0.457 6.01605,-1.366 1.822,-1.094 3.279,-2.508 4.373,-4.237 v 15.582"
       style="fill:#6c6d6d;fill-opacity:1;fill-rule:nonzero;stroke:none;stroke-width:0.1"
       id="path26" />
    <path
       d="m 817.04515,205.15935 c -0.631,0.595 -1.512,0.892 -2.647,0.892 -0.81,0 -1.521,-0.172 -2.132,-0.514 -0.613,-0.341 -1.121,-0.792 -1.526,-1.349 -0.405,-0.559 -0.711,-1.193 -0.918,-1.904 -0.207,-0.712 -0.31,-1.435 -0.31,-2.173 0,-0.739 0.103,-1.463 0.31,-2.173 0.207,-0.712 0.513,-1.347 0.918,-1.905 0.405,-0.557 0.913,-1.007 1.526,-1.349 0.611,-0.342 1.322,-0.513 2.132,-0.513 0.522,0 1.018,0.099 1.486,0.297 0.468,0.197 0.882,0.473 1.241,0.823 0.36,0.351 0.657,0.77 0.892,1.256 0.233,0.485 0.378,1.017 0.432,1.593 h 1.7 c -0.233,-1.693 -0.854,-3.011 -1.862,-3.956 -1.009,-0.945 -2.305,-1.417 -3.889,-1.417 -1.062,0 -2.002,0.193 -2.821,0.58 -0.819,0.388 -1.508,0.914 -2.065,1.58 -0.559,0.665 -0.982,1.444 -1.27,2.335 -0.287,0.892 -0.431,1.841 -0.431,2.849 0,1.007 0.144,1.958 0.431,2.848 0.288,0.891 0.711,1.669 1.27,2.336 0.557,0.665 1.246,1.196 2.065,1.593 0.819,0.395 1.759,0.594 2.821,0.594 1.495,0 2.758,-0.397 3.793,-1.188 1.036,-0.793 1.653,-1.989 1.85,-3.592 h -1.7 c -0.235,1.044 -0.667,1.864 -1.296,2.457"
       style="fill:#8e8e8e;fill-opacity:1;fill-rule:nonzero;stroke:none;stroke-width:0.1"
       id="path28" />
    <path
       d="m 824.09215,207.07635 v -3.266 h 0.053 c 0.432,1.134 1.103,2.007 2.011,2.619 0.909,0.611 1.994,0.891 3.254,0.837 v -1.701 c -0.773,0.036 -1.476,-0.068 -2.105,-0.311 -0.631,-0.243 -1.175,-0.59 -1.634,-1.039 -0.459,-0.45 -0.816,-0.985 -1.067,-1.606 -0.252,-0.621 -0.377,-1.301 -0.377,-2.039 v -7.425 h -1.702 v 13.931 h 1.567"
       style="fill:#8e8e8e;fill-opacity:1;fill-rule:nonzero;stroke:none;stroke-width:0.1"
       id="path30" />
    <path
       d="m 840.22415,202.94635 c -0.207,0.593 -0.499,1.121 -0.878,1.58 -0.377,0.459 -0.836,0.827 -1.377,1.106 -0.539,0.279 -1.152,0.419 -1.836,0.419 -0.701,0 -1.322,-0.14 -1.863,-0.419 -0.54,-0.279 -0.999,-0.647 -1.376,-1.106 -0.378,-0.459 -0.68,-0.991 -0.906,-1.594 -0.224,-0.603 -0.373,-1.22 -0.445,-1.849 h 9.018 c -0.018,0.648 -0.13,1.269 -0.337,1.863 z m -8.424,-5.198 c 0.171,-0.657 0.445,-1.247 0.823,-1.768 0.379,-0.523 0.855,-0.954 1.432,-1.296 0.576,-0.342 1.268,-0.513 2.078,-0.513 1.242,0 2.215,0.323 2.916,0.972 0.703,0.648 1.188,1.512 1.459,2.592 h 1.701 c -0.361,-1.584 -1.023,-2.808 -1.985,-3.672 -0.963,-0.865 -2.328,-1.296 -4.091,-1.296 -1.098,0 -2.047,0.193 -2.848,0.58 -0.801,0.388 -1.454,0.918 -1.958,1.594 -0.504,0.674 -0.878,1.458 -1.12,2.348 -0.243,0.891 -0.365,1.831 -0.365,2.822 0,0.918 0.122,1.818 0.365,2.7 0.242,0.882 0.616,1.669 1.12,2.362 0.504,0.693 1.157,1.251 1.958,1.674 0.801,0.423 1.75,0.635 2.848,0.635 1.116,0 2.07,-0.226 2.862,-0.675 0.792,-0.45 1.436,-1.04 1.931,-1.769 0.495,-0.729 0.85,-1.566 1.066,-2.51 0.217,-0.946 0.307,-1.905 0.27,-2.876 h -10.719 c 0,-0.613 0.086,-1.247 0.257,-1.904"
       style="fill:#8e8e8e;fill-opacity:1;fill-rule:nonzero;stroke:none;stroke-width:0.1"
       id="path32" />
    <path
       d="m 853.41415,200.75935 c -0.108,-0.198 -0.316,-0.343 -0.621,-0.433 -0.307,-0.089 -0.576,-0.152 -0.811,-0.188 -0.72,-0.126 -1.462,-0.239 -2.227,-0.338 -0.765,-0.099 -1.462,-0.247 -2.093,-0.445 -0.63,-0.199 -1.146,-0.482 -1.553,-0.851 -0.404,-0.369 -0.607,-0.895 -0.607,-1.579 0,-0.433 0.086,-0.814 0.257,-1.147 0.171,-0.334 0.4,-0.622 0.688,-0.865 0.288,-0.243 0.621,-0.427 0.999,-0.553 0.378,-0.126 0.765,-0.189 1.161,-0.189 0.649,0 1.27,0.099 1.864,0.297 0.593,0.197 1.111,0.485 1.552,0.863 0.441,0.379 0.791,0.838 1.053,1.378 0.261,0.539 0.391,1.152 0.391,1.836 v 2.214 z m -8.506,4.158 c 0.288,0.594 0.68,1.079 1.175,1.458 0.495,0.378 1.075,0.656 1.741,0.837 0.666,0.18 1.404,0.27 2.215,0.27 0.611,0 1.223,-0.059 1.836,-0.176 0.611,-0.117 1.16,-0.337 1.646,-0.661 0.487,-0.324 0.882,-0.779 1.188,-1.364 0.307,-0.584 0.459,-1.345 0.459,-2.281 v -7.398 c 0,-0.685 0.334,-1.027 1,-1.027 0.197,0 0.377,0.037 0.539,0.109 v -1.431 c -0.197,-0.037 -0.373,-0.063 -0.525,-0.081 -0.155,-0.018 -0.348,-0.027 -0.581,-0.027 -0.433,0 -0.779,0.058 -1.04,0.176 -0.261,0.116 -0.463,0.283 -0.608,0.499 -0.144,0.215 -0.238,0.472 -0.283,0.769 -0.045,0.297 -0.067,0.625 -0.067,0.985 h -0.054 c -0.307,-0.45 -0.617,-0.85 -0.932,-1.201 -0.315,-0.35 -0.666,-0.643 -1.053,-0.878 -0.387,-0.233 -0.828,-0.413 -1.323,-0.54 -0.495,-0.125 -1.085,-0.188 -1.768,-0.188 -0.649,0 -1.256,0.077 -1.823,0.229 -0.567,0.153 -1.062,0.396 -1.485,0.729 -0.423,0.333 -0.756,0.757 -0.999,1.269 -0.243,0.513 -0.365,1.12 -0.365,1.823 0,0.971 0.217,1.732 0.648,2.281 0.432,0.549 1.004,0.968 1.715,1.256 0.711,0.288 1.512,0.49 2.402,0.607 0.892,0.117 1.796,0.23 2.714,0.338 0.361,0.035 0.675,0.081 0.946,0.135 0.27,0.054 0.495,0.148 0.674,0.283 0.18,0.135 0.32,0.319 0.418,0.554 0.1,0.233 0.149,0.54 0.149,0.918 0,0.576 -0.094,1.049 -0.283,1.418 -0.189,0.368 -0.45,0.661 -0.784,0.877 -0.332,0.215 -0.719,0.364 -1.16,0.445 -0.441,0.081 -0.914,0.122 -1.418,0.122 -1.08,0 -1.962,-0.257 -2.646,-0.77 -0.684,-0.513 -1.043,-1.336 -1.079,-2.47 h -1.702 c 0.054,0.809 0.225,1.511 0.513,2.106"
       style="fill:#8e8e8e;fill-opacity:1;fill-rule:nonzero;stroke:none;stroke-width:0.1"
       id="path34" />
    <path
       d="m 864.10515,207.07635 v -1.43 h -2.835 v -9.396 c 0,-0.558 0.077,-0.995 0.23,-1.309 0.152,-0.316 0.535,-0.492 1.146,-0.528 0.487,0 0.973,0.028 1.459,0.081 v -1.43 c -0.252,0 -0.503,-0.009 -0.755,-0.028 -0.253,-0.017 -0.504,-0.026 -0.756,-0.026 -1.135,0 -1.927,0.22 -2.377,0.661 -0.449,0.442 -0.666,1.256 -0.648,2.443 v 9.532 h -2.43 v 1.43 h 2.43 v 4.186 h 1.701 v -4.186 h 2.835"
       style="fill:#8e8e8e;fill-opacity:1;fill-rule:nonzero;stroke:none;stroke-width:0.1"
       id="path36" />
    <path
       d="m 868.29015,207.07635 v -13.931 h -1.701 v 13.931 z m 0,5.347 v -2.727 h -1.701 v 2.727 h 1.701"
       style="fill:#8e8e8e;fill-opacity:1;fill-rule:nonzero;stroke:none;stroke-width:0.1"
       id="path38" />
    <path
       d="m 871.88115,207.07635 4.374,-12.23 h 0.054 l 4.32,12.23 h 1.755 l -5.211,-13.931 h -1.81 l -5.372,13.931 h 1.89"
       style="fill:#8e8e8e;fill-opacity:1;fill-rule:nonzero;stroke:none;stroke-width:0.1"
       id="path40" />
    <path
       d="m 893.73815,202.94635 c -0.207,0.593 -0.5,1.121 -0.879,1.58 -0.377,0.459 -0.836,0.827 -1.377,1.106 -0.539,0.279 -1.152,0.419 -1.836,0.419 -0.701,0 -1.322,-0.14 -1.863,-0.419 -0.539,-0.279 -0.998,-0.647 -1.377,-1.106 -0.377,-0.459 -0.678,-0.991 -0.904,-1.594 -0.225,-0.603 -0.373,-1.22 -0.445,-1.849 h 9.017 c -0.017,0.648 -0.131,1.269 -0.336,1.863 z m -8.425,-5.198 c 0.171,-0.657 0.446,-1.247 0.824,-1.768 0.379,-0.523 0.855,-0.954 1.431,-1.296 0.577,-0.342 1.27,-0.513 2.078,-0.513 1.243,0 2.215,0.323 2.916,0.972 0.704,0.648 1.19,1.512 1.459,2.592 h 1.702 c -0.362,-1.584 -1.022,-2.808 -1.985,-3.672 -0.965,-0.865 -2.328,-1.296 -4.092,-1.296 -1.097,0 -2.046,0.193 -2.847,0.58 -0.801,0.388 -1.454,0.918 -1.958,1.594 -0.504,0.674 -0.878,1.458 -1.12,2.348 -0.243,0.891 -0.366,1.831 -0.366,2.822 0,0.918 0.123,1.818 0.366,2.7 0.242,0.882 0.616,1.669 1.12,2.362 0.504,0.693 1.157,1.251 1.958,1.674 0.801,0.423 1.75,0.635 2.847,0.635 1.118,0 2.071,-0.226 2.864,-0.675 0.791,-0.45 1.433,-1.04 1.929,-1.769 0.495,-0.729 0.85,-1.566 1.067,-2.51 0.217,-0.946 0.306,-1.905 0.269,-2.876 h -10.718 c 0,-0.613 0.086,-1.247 0.256,-1.904"
       style="fill:#8e8e8e;fill-opacity:1;fill-rule:nonzero;stroke:none;stroke-width:0.1"
       id="path42" />
    <path
       d="m 908.19515,205.64635 v -12.501 h -1.701 v 12.501 h -2.375 v 1.43 h 2.375 v 1.27 c 0,0.594 0.045,1.143 0.135,1.646 0.09,0.504 0.262,0.937 0.514,1.296 0.252,0.361 0.597,0.64 1.039,0.838 0.441,0.197 1.004,0.297 1.687,0.297 0.252,0 0.486,-0.01 0.703,-0.027 0.215,-0.019 0.459,-0.045 0.729,-0.081 v -1.458 c -0.235,0.036 -0.451,0.067 -0.649,0.094 -0.197,0.028 -0.396,0.04 -0.593,0.04 -0.469,0 -0.829,-0.072 -1.081,-0.215 -0.251,-0.145 -0.437,-0.337 -0.552,-0.58 -0.117,-0.244 -0.186,-0.527 -0.203,-0.851 -0.018,-0.324 -0.028,-0.675 -0.028,-1.053 v -1.216 h 2.754 v -1.43 h -2.754"
       style="fill:#8e8e8e;fill-opacity:1;fill-rule:nonzero;stroke:none;stroke-width:0.1"
       id="path44" />
    <path
       d="m 914.29715,212.42335 v -19.278 h -1.699 v 19.278 h 1.699"
       style="fill:#8e8e8e;fill-opacity:1;fill-rule:nonzero;stroke:none;stroke-width:0.1"
       id="path46" />
    <path
       d="m 917.80915,207.07635 4.589,-11.879 4.293,11.879 h 1.702 l -6.049,-16.038 c -0.252,-0.593 -0.487,-1.084 -0.701,-1.47 -0.217,-0.388 -0.456,-0.694 -0.717,-0.918 -0.26,-0.226 -0.567,-0.388 -0.918,-0.487 -0.35,-0.098 -0.797,-0.148 -1.336,-0.148 -0.342,0.017 -0.608,0.031 -0.797,0.04 -0.189,0.01 -0.355,0.041 -0.5,0.095 v 1.43 c 0.199,-0.035 0.393,-0.067 0.582,-0.093 0.188,-0.028 0.381,-0.041 0.58,-0.041 0.377,0 0.688,0.054 0.932,0.162 0.242,0.108 0.453,0.256 0.634,0.445 0.18,0.189 0.333,0.419 0.459,0.688 0.125,0.271 0.26,0.568 0.405,0.892 l 0.594,1.565 -5.563,13.878 h 1.811"
       style="fill:#8e8e8e;fill-opacity:1;fill-rule:nonzero;stroke:none;stroke-width:0.1"
       id="path48" />
    <path
       d="m 931.79315,207.07635 v -13.931 h -1.699 v 13.931 z m 0,5.347 v -2.727 h -1.699 v 2.727 h 1.699"
       style="fill:#8e8e8e;fill-opacity:1;fill-rule:nonzero;stroke:none;stroke-width:0.1"
       id="path50" />
    <path
       d="m 936.73415,207.07635 v -2.402 h 0.053 c 0.324,0.846 0.9,1.525 1.729,2.038 0.828,0.513 1.736,0.77 2.726,0.77 0.973,0 1.787,-0.126 2.444,-0.378 0.658,-0.252 1.183,-0.608 1.58,-1.067 0.396,-0.459 0.675,-1.021 0.837,-1.687 0.163,-0.666 0.243,-1.413 0.243,-2.241 v -8.964 h -1.701 v 8.694 c 0,0.594 -0.053,1.148 -0.163,1.66 -0.107,0.513 -0.296,0.959 -0.566,1.337 -0.27,0.378 -0.635,0.675 -1.094,0.891 -0.459,0.216 -1.031,0.324 -1.715,0.324 -0.683,0 -1.291,-0.122 -1.822,-0.365 -0.531,-0.242 -0.98,-0.576 -1.349,-0.998 -0.37,-0.424 -0.659,-0.928 -0.864,-1.513 -0.207,-0.585 -0.32,-1.22 -0.338,-1.903 v -8.127 h -1.701 v 13.931 h 1.701"
       style="fill:#8e8e8e;fill-opacity:1;fill-rule:nonzero;stroke:none;stroke-width:0.1"
       id="path52" />
    <path
       d="m 957.09215,195.21035 c 0.558,0.315 1.025,0.73 1.404,1.242 0.377,0.513 0.662,1.103 0.85,1.769 0.189,0.666 0.285,1.35 0.285,2.052 0,0.683 -0.082,1.368 -0.244,2.051 -0.162,0.685 -0.424,1.305 -0.784,1.864 -0.359,0.557 -0.822,1.008 -1.39,1.349 -0.567,0.342 -1.256,0.514 -2.065,0.514 -0.81,0 -1.503,-0.167 -2.08,-0.5 -0.576,-0.333 -1.052,-0.77 -1.429,-1.31 -0.379,-0.54 -0.655,-1.156 -0.825,-1.849 -0.171,-0.693 -0.255,-1.4 -0.255,-2.119 0,-0.702 0.089,-1.386 0.269,-2.052 0.18,-0.666 0.459,-1.256 0.836,-1.769 0.379,-0.512 0.856,-0.927 1.432,-1.242 0.576,-0.315 1.259,-0.472 2.052,-0.472 0.739,0 1.385,0.157 1.944,0.472 z m 3.902,-3.713 c -0.226,-0.827 -0.582,-1.529 -1.066,-2.105 -0.487,-0.576 -1.121,-1.017 -1.905,-1.323 -0.783,-0.306 -1.742,-0.459 -2.875,-0.459 -0.703,0 -1.386,0.081 -2.052,0.243 -0.666,0.162 -1.264,0.414 -1.795,0.756 -0.531,0.341 -0.973,0.779 -1.324,1.309 -0.35,0.531 -0.553,1.166 -0.608,1.904 h 1.701 c 0.09,-0.522 0.266,-0.958 0.528,-1.31 0.259,-0.351 0.576,-0.634 0.945,-0.851 0.369,-0.215 0.777,-0.373 1.228,-0.471 0.45,-0.1 0.909,-0.149 1.377,-0.149 1.584,0 2.727,0.449 3.428,1.35 0.703,0.9 1.055,2.196 1.055,3.888 v 1.89 h -0.055 c -0.396,-0.864 -0.976,-1.557 -1.742,-2.079 -0.766,-0.522 -1.66,-0.783 -2.686,-0.783 -1.117,0 -2.07,0.184 -2.863,0.554 -0.791,0.368 -1.443,0.877 -1.957,1.525 -0.512,0.647 -0.887,1.408 -1.121,2.281 -0.232,0.873 -0.35,1.805 -0.35,2.795 0,0.953 0.139,1.859 0.418,2.713 0.28,0.855 0.684,1.603 1.215,2.241 0.531,0.639 1.188,1.143 1.971,1.512 0.783,0.369 1.68,0.554 2.687,0.554 0.522,0 1.012,-0.073 1.471,-0.216 0.459,-0.145 0.877,-0.347 1.256,-0.608 0.379,-0.261 0.715,-0.562 1.012,-0.904 0.297,-0.343 0.527,-0.702 0.689,-1.08 h 0.055 v 2.402 h 1.699 v -12.797 c 0,-1.026 -0.111,-1.954 -0.336,-2.782"
       style="fill:#8e8e8e;fill-opacity:1;fill-rule:nonzero;stroke:none;stroke-width:0.1"
       id="path54" />
    <g
       id="g3"
       inkscape:export-filename="..\png\logo_sparrow.png"
       inkscape:export-xdpi="96"
       inkscape:export-ydpi="96">
      <path
         d="M 375.00001,566.93002 H 0 V 191.93001 h 375.00001 z"
         style="fill:#1a1a1a;fill-opacity:1;fill-rule:nonzero;stroke:none;stroke-width:0.0542799"
         id="path12" />
      <g
         id="g2"
         transform="matrix(0.91641143,0,0,0.91641143,-406.17608,-41.384429)">
        <g
           id="g56"
           transform="matrix(0.1,0,0,0.1,302.00936,184.88095)">
          <g
             id="g58"
             clip-path="url(#clipPath62)">
            <path
               d="M 3083.91,1985.52 H 2877.7 c 0,0 180.08,42.67 325.35,267.4 62.64,96.92 166.42,297.13 314.74,555.44 70.72,0 144.58,0 219.92,0 v 0 c 159.61,0 323.8,0 478.4,0 C 4076.4,2575.99 3929.5,2333.15 3929.5,2333.15 3725.43,1999.21 3475.26,1985.52 3083.91,1985.52"
               style="fill:url(#linearGradient68);fill-opacity:1;fill-rule:nonzero;stroke:none"
               id="path70" />
          </g>
        </g>
        <g
           id="g72"
           transform="matrix(0.1,0,0,0.1,302.00936,184.88095)">
          <g
             id="g74"
             clip-path="url(#clipPath78)">
            <path
               d="m 4942.64,2808.36 c -103.28,0 -392.65,0 -726.53,0 -154.6,0 -318.79,0 -478.4,0 40.83,288.61 74.33,512.94 242.3,579.38 -120.64,0 -276.32,0 -443.26,0 l -353.11,-579.38 c -166.11,0 -293.44,0 -349.7,0 -552.65,0 -588.27,321.51 -748.54,683.56 120.16,-94.65 236.48,-104.18 329.8,-104.18 252.73,0 1452.38,0 1743.04,0 552.64,0 632.86,-320.89 784.4,-579.38 m -508.08,444.06 c -44.31,0 -80.22,-35.92 -80.22,-80.23 0,-44.3 35.91,-80.21 80.22,-80.21 44.31,0 80.23,35.91 80.23,80.21 0,44.31 -35.92,80.23 -80.23,80.23"
               style="fill:url(#linearGradient84);fill-opacity:1;fill-rule:nonzero;stroke:none"
               id="path86" />
          </g>
        </g>
        <g
           id="g88"
           transform="matrix(0.1,0,0,0.1,302.00936,184.88095)">
          <g
             id="g90"
             clip-path="url(#clipPath94)">
            <path
               d="m 3737.71,2808.36 c -201.27,0 -395.36,0 -554.07,0 l 353.11,579.38 c 166.94,0 322.62,0 443.26,0 -167.97,-66.44 -201.47,-290.77 -242.3,-579.38"
               style="fill:url(#linearGradient100);fill-opacity:1;fill-rule:nonzero;stroke:none"
               id="path102" />
          </g>
        </g>
        <g
           id="g104"
           transform="matrix(0.1,0,0,0.1,302.00936,184.88095)">
          <g
             id="g106"
             clip-path="url(#clipPath110)">
            <path
               d="m 2785.55,3055.14 c 202.78,334.37 463.45,329.8 854.51,329.8 h 295.34 c 0,0 -176.45,-18.88 -302.15,-232.28 -125.7,-213.39 -492.35,-819.51 -492.35,-819.51 -204.07,-333.94 -454.24,-347.63 -845.6,-347.63 h -295.34 c 0,0 180.08,42.67 325.35,267.4 81.42,125.98 232.32,426.41 460.24,802.22"
               style="fill:url(#linearGradient116);fill-opacity:1;fill-rule:nonzero;stroke:none"
               id="path118" />
          </g>
        </g>
      </g>
    </g>
  </g>
</svg>
